
<svg xmlns="http://www.w3.org/2000/svg" version="1.1" xmlns:xlink="http://www.w3.org/1999/xlink" preserveAspectRatio="none" x="0px" y="0px" width="32px" height="32px" viewBox="0 0 32 32">
<defs>
<g id="Layer0_0_MEMBER_0_FILL">
<path fill="#FFFFFF" stroke="none" d="
M 353.95 145.85
Q 353.65 141.5 350.05 138.5 346.5 135.6 341.65 135.6
L 265.85 135.6
Q 255.95 135.6 253.55 145.15 249.1 162.3 243.65 208.7 227.55 213.8 212.55 221.65
L 165.45 185.1
Q 161 181.7 156.55 181.7 149.1 181.7 124.3 206.1 99.4 230.7 90.65 242.85 87.55 247.3 87.55 250.7 87.55 254.8 91 258.9 113.2 285.65 127.55 306 118.95 321.8 114.2 337.45
L 50.7 347
Q 46.9 347.7 44.2 351.45 41.45 355.25 41.45 359.3
L 41.45 435.1
Q 41.45 439.5 44.2 443.15 46.95 446.75 51.35 447.4
L 113.85 456.6
Q 118.7 473.5 127.85 490.45 120.75 500.25 109.45 514.5 97.9 529.1 92 537.2 89.3 540.95 89.3 545.05 89.3 549.45 91.65 552.95 105.05 571.4 148 610.3 151.75 614.05 156.55 614.05 161.7 614.05 165.1 611
L 213.25 574.45
Q 227.55 581.7 244 587.1
L 253.55 649.9
Q 253.9 654.35 257.5 657.25 261 660.15 265.85 660.15
L 341.65 660.15
Q 351.55 660.15 353.95 650.6 358.4 633.5 363.85 587.1 380.1 581.85 394.95 574.1
L 442.05 611
Q 446.8 614.05 450.95 614.05 458.5 614.05 483.05 589.8 507.5 565.75 516.85 552.95 519.95 549.45 519.95 545.05 519.95 540.6 516.5 536.55 491.5 505.9 480 489.4 486.6 477.2 493.3 458.35
L 556.5 448.75
Q 560.65 448.05 563.3 444.3 566.05 440.6 566.05 436.45
L 566.05 360.65
Q 566.05 356.15 563.3 352.65 560.6 349.05 556.15 348.35
L 493.65 338.8
Q 488.45 322.25 479.65 305.35 486 296.55 498.1 281.25 510.75 265.2 515.5 258.55 518.25 254.75 518.25 250.7 518.25 245.95 515.85 243.15 503.6 225.8 459.5 185.1 455.35 181.7 450.95 181.7 445.8 181.7 442.75 184.75
L 394.25 221.3
Q 379.8 213.95 363.5 208.7
L 353.95 145.85
M 241.95 336.05
Q 267.55 310.45 303.75 310.45 339.95 310.45 365.55 336.05 391.2 361.7 391.2 397.9 391.2 434.05 365.55 459.7 339.95 485.3 303.75 485.3 267.55 485.3 241.95 459.7 216.3 434.05 216.3 397.9 216.3 361.7 241.95 336.05 Z"/>
</g>
</defs>

<g transform="matrix( 0.061004638671875, 0, 0, 0.061004638671875, -2.55,-8.25) ">
<use xlink:href="#Layer0_0_MEMBER_0_FILL"/>
</g>
</svg>
