
<svg xmlns="http://www.w3.org/2000/svg" version="1.1" xmlns:xlink="http://www.w3.org/1999/xlink" preserveAspectRatio="none" x="0px" y="0px" width="16px" height="16px" viewBox="0 0 16 16">
<defs>
<g id="Layer0_0_MEMBER_0_FILL">
<path fill="#eb1717" stroke="none" d="
M 11.25 0.15
Q 11.1 0 10.9 0
L 1.75 0
Q 1.55 0 1.45 0.15 1.3 0.25 1.3 0.45
L 1.3 15.55
Q 1.3 15.75 1.45 15.85 1.55 16 1.75 16
L 10.9 16
Q 11.1 16 11.25 15.85 11.4 15.75 11.4 15.55
L 11.4 11.8
Q 11.3810546875 11.6310546875 11.25 11.5 11.1 11.35 10.9 11.35
L 10.6 11.35
Q 10.2 11.35 10 11.35
L 9.95 11.35
Q 9.75 11.35 9.65 11.5 9.5189453125 11.6310546875 9.5 11.8
L 9.5 14.1 3.1 14.1 3.1 1.9 9.5 1.9 9.5 4.2
Q 9.5 4.35 9.65 4.5 9.755078125 4.65 9.95 4.65 10.184765625 4.6498046875 10.6 4.6
L 10.9 4.6 10.9 4.65
Q 11.1 4.65 11.25 4.5 11.4 4.35 11.4 4.2
L 11.4 0.45
Q 11.4 0.25 11.25 0.15 Z"/>
</g>

<g id="_______1_0_Layer0_0_FILL">
<path fill="#eb1717" stroke="none" d="
M 8.75 2.75
Q 8.7 2.7 8.65 2.6
L 7.05 0
Q 6.05 0 5.85 0 5.65 0 5.5 0.15 5.35 0.25 5.35 0.45 5.35 0.65 5.5 0.8
L 6.75 2.1 0.45 2.1
Q 0.35 2.1 0.25 2.2 0.2 2.2 0.15 2.3 0 2.6 0 3 0 3.1 0 3.15 0.05 3.45 0.15 3.65 0.3 3.85 0.45 3.85
L 6.75 3.85 5.5 5.1
Q 5.35 5.25 5.35 5.45 5.35 5.65 5.5 5.75 5.55 5.85 5.65 5.9 5.75 5.9 5.85 5.9
L 5.65 5.9 6.85 5.9 8.65 3.3
Q 8.7 3.2 8.75 3.15 8.8 3.05 8.8 2.95 8.8 2.85 8.75 2.75 Z"/>
</g>

<g id="_______1_0_Layer0_1_FILL">
<path fill="#eb1717" stroke="none" d="
M 10 2.95
Q 10 2.85 9.95 2.75 9.9 2.7 9.85 2.6
L 7.35 0.15
Q 7.25 0 7.05 0 6.85 0 6.7 0.15 6.55 0.25 6.55 0.45 6.55 0.65 6.7 0.8
L 7.95 2.1 1.65 2.1
Q 1.5 2.1 1.35 2.3 1.2 2.6 1.2 2.95 1.2 3.35 1.35 3.65 1.5 3.85 1.65 3.85
L 7.95 3.85 6.7 5.1
Q 6.55 5.25 6.55 5.45 6.55 5.65 6.7 5.75 6.75 5.85 6.85 5.9 6.95 5.9 7.05 5.9 7.1 5.9 7.2 5.9 7.3 5.85 7.35 5.75
L 9.85 3.3
Q 9.9 3.2 9.95 3.15 10 3.05 10 2.95 Z"/>
</g>
</defs>

<g transform="matrix( 0.967742919921875, 0, 0, 0.9687347412109375, 0.75,0.25) ">
<use xlink:href="#Layer0_0_MEMBER_0_FILL"/>
</g>

<g transform="matrix( 0.764495849609375, 0, 0, 0.765289306640625, 6.35,5.75) ">
<g transform="matrix( 1, 0, 0, 1, 0,0) ">
<use xlink:href="#_______1_0_Layer0_0_FILL"/>
</g>

<g transform="matrix( 1, 0, 0, 1, 0,0) ">
<use xlink:href="#_______1_0_Layer0_1_FILL"/>
</g>
</g>
</svg>
