
<svg xmlns="http://www.w3.org/2000/svg" version="1.1" xmlns:xlink="http://www.w3.org/1999/xlink" preserveAspectRatio="none" x="0px" y="0px" width="32px" height="32px" viewBox="0 0 32 32">
<defs>
<g id="Layer0_0_MEMBER_0_FILL">
<path fill="#FFFFFF" stroke="none" d="
M 783.45 185.55
Q 766.75 145.05 735.35 113.65 703.95 82.25 663.55 65.55 623.2 48.85 578.8 48.85 534.45 48.85 494 65.65 453.55 82.4 422.1 113.85
L 400.25 135.7 378 113.5
Q 346.55 82.05 306.05 65.2 265.5 48.35 221.15 48.35 176.9 48.35 136.45 65.1 96.1 81.85 64.75 113.15 33.3 144.6 16.6 185 -0.1 225.45 0 269.85 0 314.2 16.85 354.6 33.65 394.95 65.1 426.4
L 383.6 744.9
Q 386.85 748.15 391.15 749.95 395.35 751.7 399.7 751.7 404.15 751.7 408.3 750.05 412.6 748.3 415.85 745.05
L 735 427.1
Q 766.45 395.65 783.2 355.2 800 314.75 800 270.35 800.1 225.95 783.45 185.55
M 740.95 203.05
Q 754.2 235.1 754.2 270.35 754.3 305.55 741.05 337.7 727.75 369.75 702.8 394.7
L 399.7 696.55 97.35 394.15
Q 72.4 369.25 59.1 337.2 45.75 305.1 45.75 269.85 45.75 234.6 59 202.6 72.25 170.5 97.15 145.7 122 120.9 154 107.6 186.05 94.3 221.15 94.3 256.35 94.3 288.55 107.65 320.7 120.95 345.6 145.9
L 383.95 184.2
Q 390.7 190.95 400.15 190.95 409.6 190.95 416.35 184.2
L 454.35 146.2
Q 479.25 121.3 511.4 108 543.55 94.65 578.65 94.65 613.7 94.65 645.8 107.95 677.85 121.25 702.8 146.05 727.7 170.95 740.95 203.05 Z"/>
</g>

<g id="Layer0_1_MEMBER_0_FILL">
<path fill="#FFFFFF" stroke="none" d="
M 783.45 185.55
Q 766.75 145.05 735.35 113.65 703.95 82.25 663.55 65.55 623.2 48.85 578.8 48.85 534.45 48.85 494 65.65 453.55 82.4 422.1 113.85
L 400.25 135.7 378 113.5
Q 346.55 82.05 306.05 65.2 265.5 48.35 221.15 48.35 176.9 48.35 136.45 65.1 96.1 81.85 64.75 113.15 33.3 144.6 16.6 185 -0.1 225.45 0 269.85 0 314.2 16.85 354.6 33.65 394.95 65.1 426.4
L 383.6 744.9
Q 386.85 748.15 391.15 749.95 395.35 751.7 399.7 751.7 404.15 751.7 408.3 750.05 412.6 748.3 415.85 745.05
L 735 427.1
Q 766.45 395.65 783.2 355.2 800 314.75 800 270.35 800.1 225.95 783.45 185.55
M 740.95 203.05
Q 754.2 235.1 754.2 270.35 754.3 305.55 741.05 337.7 727.75 369.75 702.8 394.7
L 399.7 696.55 97.35 394.15
Q 72.4 369.25 59.1 337.2 45.75 305.1 45.75 269.85 45.75 234.6 59 202.6 72.25 170.5 97.15 145.7 122 120.9 154 107.6 186.05 94.3 221.15 94.3 256.35 94.3 288.55 107.65 320.7 120.95 345.6 145.9
L 383.95 184.2
Q 390.7 190.95 400.15 190.95 409.6 190.95 416.35 184.2
L 454.35 146.2
Q 479.25 121.3 511.4 108 543.55 94.65 578.65 94.65 613.7 94.65 645.8 107.95 677.85 121.25 702.8 146.05 727.7 170.95 740.95 203.05 Z"/>
</g>
</defs>

<g transform="matrix( 0.0399932861328125, 0, 0, 0.040008544921875, 0,0) ">
<use xlink:href="#Layer0_0_MEMBER_0_FILL"/>
</g>

<g transform="matrix( 0.036407470703125, 0, 0, 0.0364227294921875, 1.4,1.4) ">
<use xlink:href="#Layer0_1_MEMBER_0_FILL"/>
</g>
</svg>
