
<svg xmlns="http://www.w3.org/2000/svg" version="1.1" xmlns:xlink="http://www.w3.org/1999/xlink" preserveAspectRatio="none" x="0px" y="0px" width="32px" height="32px" viewBox="0 0 32 32">
<defs>
<g id="Layer0_0_FILL">
<path fill="#FFFFFF" stroke="none" d="
M 29.45 4.55
Q 28.1 3.3 26.55 2.65 25.05 2 23.15 2 21.3 2 19.8 2.65 18.2 3.3 16.9 4.6
L 16.05 5.45 15.15 4.55
Q 13.8 3.3 12.25 2.65 10.6 1.95 8.85 1.95 7.15 1.95 5.5 2.65 3.8 3.35 2.6 4.55 1.35 5.9 0.7 7.45 0.05 8.95 0.05 10.8 0.05 12.7 0.7 14.2 1.35 15.8 2.65 17.1
L 15.35 29.85 15.65 30.05 16 30.1 16.35 30.05 16.65 29.85 29.4 17.1
Q 30.7 15.85 31.35 14.25 32 12.65 32 10.85 32 9.05 31.35 7.45 30.7 5.9 29.45 4.55 Z"/>
</g>
</defs>

<g transform="matrix( 1, 0, 0, 1, 0,0) ">
<use xlink:href="#Layer0_0_FILL"/>
</g>
</svg>
