
<svg xmlns="http://www.w3.org/2000/svg" version="1.1" xmlns:xlink="http://www.w3.org/1999/xlink" preserveAspectRatio="none" x="0px" y="0px" width="16px" height="16px" viewBox="0 0 16 16">
<defs>
<g id="_______2_0_Layer0_0_FILL">
<path fill="#FFFFFF" stroke="none" d="
M 749.95 690.65
Q 749.95 683.9 747.35 677.55
L 606.75 336.9
Q 601.3 323.75 588.15 318.3 575 312.8 561.85 318.25 555.5 320.9 550.65 325.7 545.85 330.55 543.2 336.9
L 402.55 677.55
Q 397.1 690.7 402.5 703.85 407.9 717.05 421 722.5 434.1 728 447.3 722.6 460.5 717.25 466 704.1
L 466.1 703.75 494.75 634.4 655.2 634.4 683.8 703.75
Q 687.8 713.45 696.5 719.25 705.2 725.05 715.6 725 729.85 725 739.9 714.95 749.95 704.85 749.95 690.65
M 626.8 565.65
L 523.15 565.65 575 440.1 626.8 565.65 Z"/>
</g>

<g id="_______2_0_Layer0_1_FILL">
<path fill="#FFFFFF" stroke="none" d="
M 550 175
Q 550 160.8 539.95 150.7 529.85 140.65 515.6 140.65
L 334.35 140.65 334.35 109.4
Q 334.35 95.15 324.3 85.1 314.2 75 300 75 285.75 75 275.7 85.1 265.6 95.15 265.6 109.4
L 265.6 140.65 84.35 140.65
Q 70.1 140.65 60.05 150.7 50 160.8 50 175 50 189.25 60.05 199.35 70.1 209.4 84.35 209.4
L 392.55 209.4
Q 378.45 249.4 360.65 287.1 336.65 337.85 308.5 378.7 277.8 338 256.45 300.6 249.75 288.95 244.75 278.9 241.1 271.2 241.05 271.1 235.4 258.05 222.15 252.8 208.95 247.55 195.85 253.2 183 258.75 177.7 271.7 172.4 284.65 177.65 297.65 179.25 301.5 182.5 308.15 188.6 320.5 196.85 334.9 222.7 380.05 260.25 428.8
L 264.5 434.3
Q 223.5 480.65 177.65 518.15 142.65 546.75 117.9 560.45 105.4 567.3 101.35 580.95 97.35 594.6 104.15 607.1 111 619.6 124.65 623.6 138.3 627.6 150.8 620.8 171.5 609.4 200.4 587.65 257.55 544.65 309.6 487.05 331.75 510.75 352.7 529 363.7 538.6 370.45 543.5 381.95 551.85 396.05 549.65 410.1 547.4 418.45 535.85 426.8 524.35 424.6 510.3 422.35 496.2 410.85 487.85 404.8 483.4 394.8 474.5 374.85 456.75 353.8 433.6 394.55 378.4 427.35 306.9 449.45 258.65 465.2 209.4
L 515.6 209.4
Q 529.85 209.4 539.95 199.35 550 189.25 550 175 Z"/>
</g>
</defs>

<g transform="matrix( 0.0228271484375, 0, 0, 0.0228271484375, 0,0.6) ">
<g transform="matrix( 1, 0, 0, 1, -50,-75) ">
<use xlink:href="#_______2_0_Layer0_0_FILL"/>
</g>

<g transform="matrix( 1, 0, 0, 1, -50,-75) ">
<use xlink:href="#_______2_0_Layer0_1_FILL"/>
</g>
</g>
</svg>
