
<svg xmlns="http://www.w3.org/2000/svg" version="1.1" xmlns:xlink="http://www.w3.org/1999/xlink" preserveAspectRatio="none" x="0px" y="0px" width="200px" height="200px" viewBox="0 0 200 200">
<defs>
<g id="librechord1_0_Layer0_0_FILL">
<path fill="#0F172D" stroke="none" d="
M 207 18.2
Q 207 0 188.8 0
L 18.25 0
Q 0 0 0 18.2
L 0 188.8
Q 0 207 18.25 207
L 188.8 207
Q 207 207 207 188.8
L 207 18.2
M 185.5 4
Q 203 4 203 21.5
L 203 185.55
Q 203 203.05 185.5 203.05
L 21.5 203.05
Q 3.95 203.05 3.95 185.55
L 3.95 21.5
Q 3.95 4 21.5 4
L 185.5 4
M 123.95 135.45
Q 123.9 129.35 121.75 124.95 119.65 120.55 115.75 118.2 111.8 115.8 106.4 115.75 101 115.8 97.05 118.2 93.15 120.55 91.05 124.95 88.9 129.35 88.85 135.45 88.9 141.5 91.05 145.9 93.15 150.3 97.05 152.7 101 155.05 106.4 155.1 111.8 155.05 115.75 152.7 119.65 150.3 121.75 145.9 123.9 141.5 123.95 135.45
M 106.4 120.15
Q 110.3 120.15 113.15 122 115.95 123.9 117.5 127.3 119.05 130.7 119.05 135.45 119.05 140.15 117.5 143.55 115.95 146.95 113.15 148.85 110.3 150.7 106.4 150.7 102.5 150.7 99.65 148.85 96.85 146.95 95.3 143.55 93.75 140.15 93.75 135.45 93.75 130.7 95.3 127.3 96.85 123.9 99.65 122 102.5 120.15 106.4 120.15
M 150.5 117.85
Q 147.8 116.45 144.1 116.4
L 129.85 116.4 129.85 154.45 134.6 154.45 134.6 139.4 143.7 139.4 151.85 154.45 157.4 154.45 148.6 138.65
Q 152.2 137.5 154.2 134.6 156.2 131.75 156.25 127.75 156.2 124.3 154.75 121.75 153.25 119.2 150.5 117.85
M 143.45 120.6
Q 147.2 120.65 149.25 122.55 151.3 124.45 151.35 127.9 151.3 131.4 149.35 133.3 147.4 135.2 143.7 135.2
L 134.6 135.2 134.6 120.6 143.45 120.6
M 47 143.4
L 42.2 143.4
Q 41.15 146.9 38.3 148.8 35.45 150.7 31.25 150.7 27.45 150.7 24.7 148.8 21.95 146.95 20.45 143.55 18.95 140.1 18.95 135.4 18.95 130.75 20.45 127.35 22 123.9 24.7 122.05 27.45 120.15 31.2 120.15 35.35 120.2 38.3 122.4 41.2 124.6 42.2 128.4
L 47 128.4
Q 46.35 124.6 44.2 121.75 42.05 118.95 38.7 117.35 35.35 115.8 31.2 115.75 25.95 115.8 22.15 118.2 18.3 120.6 16.2 125 14.1 129.4 14.05 135.4 14.1 141.5 16.15 145.9 18.25 150.25 22.1 152.65 25.95 155.05 31.2 155.1 37.55 155.05 41.6 152.05 45.65 149.05 47 143.4
M 78.2 116.4
L 78.2 132.85 57.35 132.85 57.35 116.4 52.6 116.4 52.6 154.45 57.35 154.45 57.35 137.15 78.2 137.15 78.2 154.45 82.95 154.45 82.95 116.4 78.2 116.4
M 72.6 90
L 72.6 51.95 67.85 51.95 67.85 90 72.6 90
M 39.55 51.95
L 39.55 90 62.65 90 62.65 85.75 44.3 85.75 44.3 51.95 39.55 51.95
M 112.65 90
L 117.4 90 117.4 74.95 126.5 74.95 134.65 90 140.2 90 131.4 74.2
Q 135 73.05 137 70.15 139 67.3 139.05 63.3 139 59.85 137.55 57.3 136.05 54.75 133.3 53.4 130.6 52 126.9 51.95
L 112.65 51.95 112.65 90
M 117.4 70.75
L 117.4 56.15 126.25 56.15
Q 130 56.2 132.05 58.1 134.1 60 134.15 63.45 134.1 66.95 132.15 68.85 130.2 70.75 126.5 70.75
L 117.4 70.75
M 105.35 61.45
Q 105.3 58.55 103.95 56.45 102.6 54.35 100.15 53.15 97.7 52 94.4 51.95
L 80 51.95 80 90 94.35 90
Q 100.5 89.95 103.85 87.2 107.2 84.4 107.25 79.3 107.2 75.45 104.95 73 102.7 70.5 98.75 69.95
L 98.75 69.75
Q 100.6 69.4 102.1 68.2 103.55 67 104.45 65.2 105.3 63.45 105.35 61.45
M 93.35 56.15
Q 96.8 56.15 98.65 57.65 100.5 59.15 100.55 62 100.5 65.1 98.3 66.7 96.1 68.35 91.85 68.35
L 84.75 68.35 84.75 56.15 93.35 56.15
M 93.2 72.45
Q 97.75 72.45 100.05 74.1 102.4 75.8 102.4 79.1 102.4 82.4 100.15 84.1 97.95 85.8 93.65 85.8
L 84.75 85.8 84.75 72.45 93.2 72.45
M 192.95 135.4
Q 192.9 126.35 188.2 121.4 183.5 116.5 175 116.4
L 162.2 116.4 162.2 154.45 175 154.45
Q 183.5 154.4 188.2 149.45 192.9 144.5 192.95 135.4
M 166.95 120.65
L 174.65 120.65
Q 181.2 120.7 184.65 124.5 188.05 128.3 188.1 135.45 188.05 142.6 184.6 146.35 181.15 150.15 174.65 150.2
L 166.95 150.2 166.95 120.65
M 167.6 72.65
L 167.6 68.45 149.75 68.45 149.75 56.2 168.55 56.2 168.55 51.95 145 51.95 145 90 168.55 90 168.55 85.75 149.75 85.75 149.75 72.65 167.6 72.65 Z"/>
</g>
</defs>

<g transform="matrix( 0.9661865234375, 0, 0, 0.9661865234375, 0,0) ">
<g transform="matrix( 1, 0, 0, 1, 0,0) ">
<use xlink:href="#librechord1_0_Layer0_0_FILL"/>
</g>
</g>
</svg>
