
<svg xmlns="http://www.w3.org/2000/svg" version="1.1" xmlns:xlink="http://www.w3.org/1999/xlink" preserveAspectRatio="none" x="0px" y="0px" width="200px" height="200px" viewBox="0 0 200 200">
<defs>
<linearGradient id="Gradient_1" gradientUnits="userSpaceOnUse" x1="359.96250000000003" y1="144.55" x2="279.7375" y2="335.05" spreadMethod="pad">
<stop  offset="0%" stop-color="#ED592B"/>

<stop  offset="51.372549019607845%" stop-color="#C435DD"/>

<stop  offset="100%" stop-color="#3CACF1"/>
</linearGradient>

<g id="Mask_librechord_0_1_MASK_0_FILL">
<path fill="#FFFFFF" stroke="none" d="
M 423.5 154.7
Q 423.5 136.5 405.3 136.5
L 234.75 136.5
Q 216.5 136.5 216.5 154.7
L 216.5 325.3
Q 216.5 343.5 234.75 343.5
L 405.3 343.5
Q 423.5 343.5 423.5 325.3
L 423.5 154.7
M 402 140.5
Q 419.5 140.5 419.5 158
L 419.5 322.05
Q 419.5 339.55 402 339.55
L 238 339.55
Q 220.45 339.55 220.45 322.05
L 220.45 158
Q 220.45 140.5 238 140.5
L 402 140.5
M 255.2 253.85
Q 251.85 252.3 247.7 252.25 242.45 252.3 238.65 254.7 234.8 257.1 232.7 261.5 230.6 265.9 230.55 271.9 230.6 278 232.65 282.4 234.75 286.75 238.6 289.15 242.45 291.55 247.7 291.6 254.05 291.55 258.1 288.55 262.15 285.55 263.5 279.9
L 258.7 279.9
Q 257.65 283.4 254.8 285.3 251.95 287.2 247.75 287.2 243.95 287.2 241.2 285.3 238.45 283.45 236.95 280.05 235.45 276.6 235.45 271.9 235.45 267.25 236.95 263.85 238.5 260.4 241.2 258.55 243.95 256.65 247.7 256.65 251.85 256.7 254.8 258.9 257.7 261.1 258.7 264.9
L 263.5 264.9
Q 262.85 261.1 260.7 258.25 258.55 255.45 255.2 253.85
M 273.85 269.35
L 273.85 252.9 269.1 252.9 269.1 290.95 273.85 290.95 273.85 273.65 294.7 273.65 294.7 290.95 299.45 290.95 299.45 252.9 294.7 252.9 294.7 269.35 273.85 269.35
M 310.9 188.45
L 296.5 188.45 296.5 226.5 310.85 226.5
Q 317 226.45 320.35 223.7 323.7 220.9 323.75 215.8 323.7 211.95 321.45 209.5 319.2 207 315.25 206.45
L 315.25 206.25
Q 317.1 205.9 318.6 204.7 320.05 203.5 320.95 201.7 321.8 199.95 321.85 197.95 321.8 195.05 320.45 192.95 319.1 190.85 316.65 189.65 314.2 188.5 310.9 188.45
M 309.85 192.65
Q 313.3 192.65 315.15 194.15 317 195.65 317.05 198.5 317 201.6 314.8 203.2 312.6 204.85 308.35 204.85
L 301.25 204.85 301.25 192.65 309.85 192.65
M 318.9 215.6
Q 318.9 218.9 316.65 220.6 314.45 222.3 310.15 222.3
L 301.25 222.3 301.25 208.95 309.7 208.95
Q 314.25 208.95 316.55 210.6 318.9 212.3 318.9 215.6
M 289.1 188.45
L 284.35 188.45 284.35 226.5 289.1 226.5 289.1 188.45
M 260.8 188.45
L 256.05 188.45 256.05 226.5 279.15 226.5 279.15 222.25 260.8 222.25 260.8 188.45
M 404.7 257.9
Q 400 253 391.5 252.9
L 378.7 252.9 378.7 290.95 391.5 290.95
Q 400 290.9 404.7 285.95 409.4 281 409.45 271.9 409.4 262.85 404.7 257.9
M 401.15 261
Q 404.55 264.8 404.6 271.95 404.55 279.1 401.1 282.85 397.65 286.65 391.15 286.7
L 383.45 286.7 383.45 257.15 391.15 257.15
Q 397.7 257.2 401.15 261
M 338.25 261.45
Q 336.15 257.05 332.25 254.7 328.3 252.3 322.9 252.25 317.5 252.3 313.55 254.7 309.65 257.05 307.55 261.45 305.4 265.85 305.35 271.95 305.4 278 307.55 282.4 309.65 286.8 313.55 289.2 317.5 291.55 322.9 291.6 328.3 291.55 332.25 289.2 336.15 286.8 338.25 282.4 340.4 278 340.45 271.95 340.4 265.85 338.25 261.45
M 334 263.8
Q 335.55 267.2 335.55 271.95 335.55 276.65 334 280.05 332.45 283.45 329.65 285.35 326.8 287.2 322.9 287.2 319 287.2 316.15 285.35 313.35 283.45 311.8 280.05 310.25 276.65 310.25 271.95 310.25 267.2 311.8 263.8 313.35 260.4 316.15 258.5 319 256.65 322.9 256.65 326.8 256.65 329.65 258.5 332.45 260.4 334 263.8
M 360.6 252.9
L 346.35 252.9 346.35 290.95 351.1 290.95 351.1 275.9 360.2 275.9 368.35 290.95 373.9 290.95 365.1 275.15
Q 368.7 274 370.7 271.1 372.7 268.25 372.75 264.25 372.7 260.8 371.25 258.25 369.75 255.7 367 254.35 364.3 252.95 360.6 252.9
M 351.1 257.1
L 359.95 257.1
Q 363.7 257.15 365.75 259.05 367.8 260.95 367.85 264.4 367.8 267.9 365.85 269.8 363.9 271.7 360.2 271.7
L 351.1 271.7 351.1 257.1
M 385.05 192.7
L 385.05 188.45 361.5 188.45 361.5 226.5 385.05 226.5 385.05 222.25 366.25 222.25 366.25 209.15 384.1 209.15 384.1 204.95 366.25 204.95 366.25 192.7 385.05 192.7
M 343.4 188.45
L 329.15 188.45 329.15 226.5 333.9 226.5 333.9 211.45 343 211.45 351.15 226.5 356.7 226.5 347.9 210.7
Q 351.5 209.55 353.5 206.65 355.5 203.8 355.55 199.8 355.5 196.35 354.05 193.8 352.55 191.25 349.8 189.9 347.1 188.5 343.4 188.45
M 342.75 192.65
Q 346.5 192.7 348.55 194.6 350.6 196.5 350.65 199.95 350.6 203.45 348.65 205.35 346.7 207.25 343 207.25
L 333.9 207.25 333.9 192.65 342.75 192.65 Z"/>
</g>

<g id="librechord_0_Layer1_0_FILL">
<path fill="url(#Gradient_1)" stroke="none" d="
M 423.5 343.55
L 423.5 136.5 216.5 136.5 216.5 343.55 423.5 343.55 Z"/>
</g>
</defs>

<g transform="matrix( 0.966400146484375, 0, 0, 0.9661712646484375, -209.25,-131.9) ">
<mask id="Mask_Mask_1">
<g transform="matrix( 1, 0, 0, 1, 0,0) ">
<use xlink:href="#Mask_librechord_0_1_MASK_0_FILL"/>
</g>
</mask>

<g mask="url(#Mask_Mask_1)">
<g transform="matrix( 1, 0, 0, 1, 0,0) ">
<use xlink:href="#librechord_0_Layer1_0_FILL"/>
</g>
</g>
</g>
</svg>
