
<svg xmlns="http://www.w3.org/2000/svg" version="1.1" xmlns:xlink="http://www.w3.org/1999/xlink" preserveAspectRatio="none" x="0px" y="0px" width="32px" height="32px" viewBox="0 0 32 32">
<defs>
<g id="Layer0_0_MEMBER_0_FILL">
<path fill="#000000" stroke="none" d="
M 687.1 343.9
Q 687.1 274 660.1 210.2 634 148.55 586.45 101 538.9 53.45 477.25 27.35 413.45 0.35 343.55 0.35 273.65 0.35 209.8 27.35 148.15 53.45 100.6 101 53.1 148.55 27 210.2 0 274 0 343.9 0 413.8 27 477.6 53.05 539.25 100.6 586.8 148.15 634.35 209.8 660.45 273.65 687.45 343.55 687.45 404.65 687.45 461.45 666.65 516.4 646.55 561.8 609.15
L 742.05 789.4
Q 755.85 802 771.2 799.15 781.9 797.2 789.7 789.4 800 779.25 800 765.7 800 752.1 789.7 741.95
L 609.45 561.5
Q 646.55 516.3 666.5 461.45 687.1 404.8 687.1 343.9
M 343.55 67.4
Q 399.8 67.4 451.2 89.15 500.8 110.1 539.1 148.4 577.4 186.65 598.45 236.3 620.2 287.65 620.2 343.9 620.2 400.15 598.45 451.5 577.5 501.15 539.2 539.4 500.95 577.7 451.3 598.65 399.95 620.4 343.7 620.4 287.45 620.4 236.05 598.65 186.4 577.7 148.1 539.4 109.8 501.15 88.75 451.5 67 400.15 67 343.9 67 287.65 88.75 236.3 109.75 186.65 148 148.4 186.3 110.1 235.9 89.15 287.3 67.4 343.55 67.4 Z"/>
</g>
</defs>

<g transform="matrix( 0.0399932861328125, 0, 0, 0.0399627685546875, 0,0.05) ">
<use xlink:href="#Layer0_0_MEMBER_0_FILL"/>
</g>
</svg>
