
<svg xmlns="http://www.w3.org/2000/svg" version="1.1" xmlns:xlink="http://www.w3.org/1999/xlink" preserveAspectRatio="none" x="0px" y="0px" width="32px" height="32px" viewBox="0 0 32 32">
<defs>
<g id="_______2_0_Layer0_0_FILL">
<path fill="#FFFFFF" stroke="none" d="
M 23.15 3.6
Q 22.75 3.2 22.2 3.2
L 13.95 3.2 13.95 2.15
Q 13.95 1.25 13.3 0.6 12.7 0 11.8 0
L 11.75 0
Q 10.85 0 10.2 0.6 9.6 1.25 9.6 2.15
L 9.6 3.2 1.35 3.2
Q 0.8 3.2 0.4 3.6 0 4 0 4.55 0 5.1 0.4 5.5 0.8 5.9 1.35 5.9
L 22.2 5.9
Q 22.75 5.9 23.15 5.5 23.55 5.1 23.55 4.55 23.55 4 23.15 3.6
M 5.55 30.5
L 17.95 30.5
Q 20.95 30.5 20.95 27.5
L 20.95 7.95 2.55 7.95 2.55 27.5
Q 2.55 30.5 5.55 30.5
M 7 12.75
Q 8 12.75 8 14.1
L 8 24.35
Q 8 25.75 7 25.75
L 5.85 25.75
Q 4.85 25.75 4.85 24.35
L 4.85 14.1
Q 4.85 12.75 5.85 12.75
L 7 12.75
M 16.55 12.75
L 17.7 12.75
Q 18.7 12.75 18.7 14.1
L 18.7 24.35
Q 18.7 25.75 17.7 25.75
L 16.55 25.75
Q 15.55 25.75 15.55 24.35
L 15.55 14.1
Q 15.55 12.75 16.55 12.75
M 11.2 12.75
L 12.35 12.75
Q 13.35 12.75 13.35 14.1
L 13.35 24.35
Q 13.35 25.75 12.35 25.75
L 11.2 25.75
Q 10.2 25.75 10.2 24.35
L 10.2 14.1
Q 10.2 12.75 11.2 12.75 Z"/>
</g>

<path id="_______2_0_Layer0_0_1_STROKES" stroke="#FFFFFF" stroke-width="1" stroke-linejoin="round" stroke-linecap="round" fill="none" d="
M 5.85 12.75
L 7 12.75
Q 8 12.75 8 14.1
L 8 24.35
Q 8 25.75 7 25.75
L 5.85 25.75
Q 4.85 25.75 4.85 24.35
L 4.85 14.1
Q 4.85 12.75 5.85 12.75 Z
M 16.55 12.75
L 17.7 12.75
Q 18.7 12.75 18.7 14.1
L 18.7 24.35
Q 18.7 25.75 17.7 25.75
L 16.55 25.75
Q 15.55 25.75 15.55 24.35
L 15.55 14.1
Q 15.55 12.75 16.55 12.75 Z
M 11.2 12.75
L 12.35 12.75
Q 13.35 12.75 13.35 14.1
L 13.35 24.35
Q 13.35 25.75 12.35 25.75
L 11.2 25.75
Q 10.2 25.75 10.2 24.35
L 10.2 14.1
Q 10.2 12.75 11.2 12.75 Z"/>
</defs>

<g transform="matrix( 1.0491790771484375, 0, 0, 1.0491790771484375, 3.7,0.05) ">
<g transform="matrix( 1, 0, 0, 1, 0,0) ">
<use xlink:href="#_______2_0_Layer0_0_FILL"/>

<use xlink:href="#_______2_0_Layer0_0_1_STROKES"/>
</g>
</g>
</svg>
