
<svg xmlns="http://www.w3.org/2000/svg" version="1.1" xmlns:xlink="http://www.w3.org/1999/xlink" preserveAspectRatio="none" x="0px" y="0px" width="32px" height="32px" viewBox="0 0 32 32">
<defs>
<g id="_______1_0_Layer0_0_MEMBER_0_MEMBER_0_MEMBER_0_MEMBER_0_FILL">
<path fill="#FFFFFF" stroke="none" d="
M 48 14.6
L 47.95 14.5 23.6 39.5 38.4 39.5 38.4 62.3 57.5 62.3 57.5 39.5 72.3 39.5 48 14.5 48 14.6 Z"/>
</g>

<g id="_______1_0_Layer0_0_MEMBER_1_MEMBER_0_MEMBER_0_MEMBER_0_FILL">
<path fill="#FFFFFF" stroke="none" d="
M 25.75 80.6
Q 27.2 81.55 28.9 81.55
L 67 81.55
Q 68.7 81.55 70.05 80.6 71.4 79.65 71.4 78.35 71.4 77 70.05 76.1 68.75 75.1 67 75.1
L 28.9 75.1
Q 27.15 75.1 25.75 76.1 24.5 77 24.5 78.35 24.5 79.65 25.75 80.6 Z"/>
</g>
</defs>

<g transform="matrix( 0.47637939453125, 0, 0, 0.4773101806640625, 4.4,0) ">
<g transform="matrix( 1, 0, 0, 1, -23.6,-14.5) ">
<use xlink:href="#_______1_0_Layer0_0_MEMBER_0_MEMBER_0_MEMBER_0_MEMBER_0_FILL"/>
</g>

<g transform="matrix( 1, 0, 0, 1, -23.6,-14.5) ">
<use xlink:href="#_______1_0_Layer0_0_MEMBER_1_MEMBER_0_MEMBER_0_MEMBER_0_FILL"/>
</g>
</g>
</svg>
